<svg width="20" height="20" viewBox="0 0 20 20" fill="none" xmlns="http://www.w3.org/2000/svg">
<g id="Bar-Top_icon">
<g id="Vector">
<path fill-rule="evenodd" clip-rule="evenodd" d="M16.6667 7.91406L3.33332 7.91406C3.10321 7.91406 2.91666 7.72752 2.91666 7.4974C2.91666 7.26728 3.10321 7.08073 3.33332 7.08073L16.6667 7.08073C16.8968 7.08073 17.0833 7.26728 17.0833 7.4974C17.0833 7.72751 16.8968 7.91406 16.6667 7.91406Z" fill="white"/>
<path fill-rule="evenodd" clip-rule="evenodd" d="M15.8333 3.7474L4.16666 3.7474C3.93654 3.7474 3.74999 3.93394 3.74999 4.16406L3.74999 15.8307C3.74999 16.0609 3.93654 16.2474 4.16666 16.2474L15.8333 16.2474C16.0634 16.2474 16.25 16.0608 16.25 15.8307L16.25 4.16406C16.25 3.93394 16.0634 3.7474 15.8333 3.7474ZM4.16666 2.91406L15.8333 2.91406C16.5237 2.91406 17.0833 3.47371 17.0833 4.16406L17.0833 15.8307C17.0833 16.5211 16.5237 17.0807 15.8333 17.0807L4.16666 17.0807C3.4763 17.0807 2.91666 16.5211 2.91666 15.8307L2.91666 4.16406C2.91666 3.47371 3.4763 2.91406 4.16666 2.91406Z" fill="white"/>
</g>
</g>
</svg>
