<svg width="24" height="24" viewBox="0 0 24 24" fill="none" xmlns="http://www.w3.org/2000/svg">
<g id="Bar-Top_icon">
<g id="Vector">
<path fill-rule="evenodd" clip-rule="evenodd" d="M20 9.5L4 9.5C3.72386 9.5 3.5 9.27614 3.5 9C3.5 8.72386 3.72386 8.5 4 8.5L20 8.5C20.2761 8.5 20.5 8.72386 20.5 9C20.5 9.27614 20.2761 9.5 20 9.5Z" fill="black"/>
<path fill-rule="evenodd" clip-rule="evenodd" d="M19 4.5L5 4.5C4.72386 4.5 4.5 4.72386 4.5 5L4.5 19C4.5 19.2761 4.72386 19.5 5 19.5L19 19.5C19.2761 19.5 19.5 19.2761 19.5 19L19.5 5C19.5 4.72386 19.2761 4.5 19 4.5ZM5 3.5L19 3.5C19.8284 3.5 20.5 4.17157 20.5 5L20.5 19C20.5 19.8284 19.8284 20.5 19 20.5L5 20.5C4.17157 20.5 3.5 19.8284 3.5 19L3.5 5C3.5 4.17157 4.17157 3.5 5 3.5Z" fill="black"/>
</g>
</g>
</svg>
