<svg width="49" height="48" viewBox="0 0 49 48" fill="none" xmlns="http://www.w3.org/2000/svg">
<g id="Building_icon_48px">
<path id="Vector" fill-rule="evenodd" clip-rule="evenodd" d="M2.38281 40C2.38281 38.8954 3.27824 38 4.38281 38H44.3828C45.4874 38 46.3828 38.8954 46.3828 40C46.3828 41.1046 45.4874 42 44.3828 42H4.38281C3.27824 42 2.38281 41.1046 2.38281 40Z" fill="black"/>
<path id="Vector_2" fill-rule="evenodd" clip-rule="evenodd" d="M26.7096 15.7129C28.23 14.347 30.5356 14.347 32.056 15.7129L41.056 23.7985C41.9005 24.5571 42.3828 25.6389 42.3828 26.774V37.9999C42.3828 40.209 40.592 41.9999 38.3828 41.9999H18.3828C17.2782 41.9999 16.3828 41.1045 16.3828 39.9999V26.774C16.3828 25.6389 16.8651 24.5571 17.7096 23.7985L26.7096 15.7129ZM29.3828 18.6885L20.3828 26.774V37.9999H38.3828V26.774L29.3828 18.6885Z" fill="black"/>
<path id="Vector_3" fill-rule="evenodd" clip-rule="evenodd" d="M6.38281 10C6.38281 7.79086 8.17367 6 10.3828 6H22.3828C24.592 6 26.3828 7.79086 26.3828 10V20C26.3828 21.1046 25.4874 22 24.3828 22C23.2782 22 22.3828 21.1046 22.3828 20V10H10.3828V38H18.3828C19.4874 38 20.3828 38.8954 20.3828 40C20.3828 41.1046 19.4874 42 18.3828 42H10.3828C8.17367 42 6.38281 40.2091 6.38281 38V10Z" fill="black"/>
</g>
</svg>
