<svg width="97" height="96" viewBox="0 0 97 96" fill="none" xmlns="http://www.w3.org/2000/svg">
<g id="Circle-Check_icon_96px">
<g id="Vector">
<path fill-rule="evenodd" clip-rule="evenodd" d="M48.3828 14.5C29.8813 14.5 14.8828 29.4985 14.8828 48C14.8828 66.5015 29.8813 81.5 48.3828 81.5C66.8844 81.5 81.8828 66.5015 81.8828 48C81.8828 29.4985 66.8844 14.5 48.3828 14.5ZM9.88281 48C9.88281 26.737 27.1199 9.5 48.3828 9.5C69.6458 9.5 86.8828 26.737 86.8828 48C86.8828 69.263 69.6458 86.5 48.3828 86.5C27.1199 86.5 9.88281 69.263 9.88281 48Z" fill="black"/>
<path fill-rule="evenodd" clip-rule="evenodd" d="M62.1506 38.2322C63.1269 39.2085 63.1269 40.7915 62.1506 41.7678L46.1506 57.7678C45.1743 58.7441 43.5914 58.7441 42.615 57.7678L34.615 49.7678C33.6387 48.7915 33.6387 47.2085 34.615 46.2322C35.5914 45.2559 37.1743 45.2559 38.1506 46.2322L44.3828 52.4645L58.615 38.2322C59.5914 37.2559 61.1743 37.2559 62.1506 38.2322Z" fill="black"/>
</g>
</g>
</svg>
