<svg width="49" height="48" viewBox="0 0 49 48" fill="none" xmlns="http://www.w3.org/2000/svg">
<g id="Circle-Check_icon_48px">
<path id="Vector" d="M21.4328 33.1L35.5828 18.95L33.2828 16.7L21.4328 28.55L15.4328 22.55L13.1828 24.8L21.4328 33.1ZM24.3828 44C21.6495 44 19.0661 43.475 16.6328 42.425C14.1995 41.375 12.0745 39.9417 10.2578 38.125C8.44115 36.3083 7.00781 34.1833 5.95781 31.75C4.90781 29.3167 4.38281 26.7333 4.38281 24C4.38281 21.2333 4.90781 18.6333 5.95781 16.2C7.00781 13.7667 8.44115 11.65 10.2578 9.85C12.0745 8.05 14.1995 6.625 16.6328 5.575C19.0661 4.525 21.6495 4 24.3828 4C27.1495 4 29.7495 4.525 32.1828 5.575C34.6161 6.625 36.7328 8.05 38.5328 9.85C40.3328 11.65 41.7578 13.7667 42.8078 16.2C43.8578 18.6333 44.3828 21.2333 44.3828 24C44.3828 26.7333 43.8578 29.3167 42.8078 31.75C41.7578 34.1833 40.3328 36.3083 38.5328 38.125C36.7328 39.9417 34.6161 41.375 32.1828 42.425C29.7495 43.475 27.1495 44 24.3828 44ZM24.3828 41C29.1161 41 33.1328 39.3417 36.4328 36.025C39.7328 32.7083 41.3828 28.7 41.3828 24C41.3828 19.2667 39.7328 15.25 36.4328 11.95C33.1328 8.65 29.1161 7 24.3828 7C19.6828 7 15.6745 8.65 12.3578 11.95C9.04115 15.25 7.38281 19.2667 7.38281 24C7.38281 28.7 9.04115 32.7083 12.3578 36.025C15.6745 39.3417 19.6828 41 24.3828 41Z" fill="black"/>
</g>
</svg>
