<svg width="60" height="60" viewBox="0 0 60 60" fill="none" xmlns="http://www.w3.org/2000/svg">
<g id="Clock_icon_60px">
<g id="Vector">
<path fill-rule="evenodd" clip-rule="evenodd" d="M30 10C18.9543 10 10 18.9543 10 30C10 41.0457 18.9543 50 30 50C41.0457 50 50 41.0457 50 30C50 18.9543 41.0457 10 30 10ZM5 30C5 16.1929 16.1929 5 30 5C43.8071 5 55 16.1929 55 30C55 43.8071 43.8071 55 30 55C16.1929 55 5 43.8071 5 30Z" fill="#1635C3"/>
<path fill-rule="evenodd" clip-rule="evenodd" d="M30 15C31.3807 15 32.5 16.1193 32.5 17.5V27.5H42.5C43.8807 27.5 45 28.6193 45 30C45 31.3807 43.8807 32.5 42.5 32.5H30C28.6193 32.5 27.5 31.3807 27.5 30V17.5C27.5 16.1193 28.6193 15 30 15Z" fill="#1635C3"/>
</g>
</g>
</svg>
