<svg width="60" height="60" viewBox="0 0 60 60" fill="none" xmlns="http://www.w3.org/2000/svg">
<g id="Data_icon_60px">
<g id="Vector">
<path fill-rule="evenodd" clip-rule="evenodd" d="M45 15C46.3807 15 47.5 16.1193 47.5 17.5L47.5 42.5C47.5 43.8807 46.3807 45 45 45C43.6193 45 42.5 43.8807 42.5 42.5L42.5 17.5C42.5 16.1193 43.6193 15 45 15ZM15 15C16.3807 15 17.5 16.1193 17.5 17.5L17.5 42.5C17.5 43.8807 16.3807 45 15 45C13.6193 45 12.5 43.8807 12.5 42.5L12.5 17.5C12.5 16.1193 13.6193 15 15 15Z" fill="black"/>
<path fill-rule="evenodd" clip-rule="evenodd" d="M15 40C16.3807 40 17.5 41.1193 17.5 42.5C17.5 43.114 18.0627 44.3429 20.5114 45.5672C22.8106 46.7168 26.1618 47.5 30 47.5C33.8382 47.5 37.1894 46.7168 39.4886 45.5672C41.9373 44.3429 42.5 43.114 42.5 42.5C42.5 41.1193 43.6193 40 45 40C46.3807 40 47.5 41.1193 47.5 42.5C47.5 46.0281 44.7049 48.5493 41.7246 50.0394C38.5949 51.6042 34.4461 52.5 30 52.5C25.5539 52.5 21.4051 51.6042 18.2754 50.0394C15.2951 48.5493 12.5 46.0281 12.5 42.5C12.5 41.1193 13.6193 40 15 40Z" fill="black"/>
<path fill-rule="evenodd" clip-rule="evenodd" d="M15 27.5C16.3807 27.5 17.5 28.6193 17.5 30C17.5 30.614 18.0627 31.8429 20.5114 33.0672C22.8106 34.2168 26.1618 35 30 35C33.8382 35 37.1894 34.2168 39.4886 33.0672C41.9373 31.8429 42.5 30.614 42.5 30C42.5 28.6193 43.6193 27.5 45 27.5C46.3807 27.5 47.5 28.6193 47.5 30C47.5 33.5281 44.7049 36.0493 41.7246 37.5394C38.5949 39.1042 34.4461 40 30 40C25.5539 40 21.4051 39.1042 18.2754 37.5394C15.2951 36.0493 12.5 33.5281 12.5 30C12.5 28.6193 13.6193 27.5 15 27.5Z" fill="black"/>
<path fill-rule="evenodd" clip-rule="evenodd" d="M20.5114 14.4328C18.0627 15.6571 17.5 16.886 17.5 17.5C17.5 18.114 18.0627 19.3429 20.5114 20.5672C22.8106 21.7168 26.1618 22.5 30 22.5C33.8382 22.5 37.1894 21.7168 39.4886 20.5672C41.9373 19.3429 42.5 18.114 42.5 17.5C42.5 16.886 41.9373 15.6571 39.4886 14.4328C37.1894 13.2832 33.8382 12.5 30 12.5C26.1618 12.5 22.8106 13.2832 20.5114 14.4328ZM18.2754 9.96063C21.4051 8.39575 25.5539 7.5 30 7.5C34.4461 7.5 38.5949 8.39575 41.7246 9.96063C44.7049 11.4507 47.5 13.9719 47.5 17.5C47.5 21.0281 44.7049 23.5493 41.7246 25.0394C38.5949 26.6043 34.4461 27.5 30 27.5C25.5539 27.5 21.4051 26.6043 18.2754 25.0394C15.2951 23.5493 12.5 21.0281 12.5 17.5C12.5 13.9719 15.2951 11.4507 18.2754 9.96063Z" fill="black"/>
</g>
</g>
</svg>
