<svg width="60" height="60" viewBox="0 0 60 60" fill="none" xmlns="http://www.w3.org/2000/svg">
<g id="File_icon_60px">
<g id="Vector">
<path fill-rule="evenodd" clip-rule="evenodd" d="M15 5L33.9077 5C35.3005 5 36.6302 5.58097 37.5765 6.60296L48.6688 18.5826C49.5246 19.5069 50 20.7201 50 21.9797V50C50 52.7614 47.7614 55 45 55H15C12.2386 55 10 52.7614 10 50L10 10C10 7.23858 12.2386 5 15 5ZM33.9077 10L15 10L15 50H45L45 21.9797L33.9077 10Z" fill="black"/>
<path fill-rule="evenodd" clip-rule="evenodd" d="M32.5 5C33.8807 5 35 6.11929 35 7.5L35 20L47.5 20C48.8807 20 50 21.1193 50 22.5C50 23.8807 48.8807 25 47.5 25H35C32.2386 25 30 22.7614 30 20L30 7.5C30 6.11929 31.1193 5 32.5 5Z" fill="black"/>
</g>
</g>
</svg>
