<svg width="49" height="48" viewBox="0 0 49 48" fill="none" xmlns="http://www.w3.org/2000/svg">
<g id="File-edit_icon_48px">
<path id="Vector" fill-rule="evenodd" clip-rule="evenodd" d="M14.3828 4L29.509 4C30.6232 4 31.687 4.46478 32.444 5.28237L41.3179 14.8661C42.0025 15.6055 42.3828 16.5761 42.3828 17.5837V40C42.3828 42.2091 40.592 44 38.3828 44H26.3828C25.2782 44 24.3828 43.1046 24.3828 42C24.3828 40.8954 25.2782 40 26.3828 40H38.3828L38.3828 17.5837L29.509 8L14.3828 8L14.3828 22C14.3828 23.1046 13.4874 24 12.3828 24C11.2782 24 10.3828 23.1046 10.3828 22L10.3828 8C10.3828 5.79086 12.1737 4 14.3828 4Z" fill="black"/>
<path id="Vector_2" fill-rule="evenodd" clip-rule="evenodd" d="M21.9686 20.5858C22.7496 19.8047 24.016 19.8047 24.797 20.5858L29.797 25.5858C30.5781 26.3668 30.5781 27.6332 29.797 28.4142L14.797 43.4142C14.422 43.7893 13.9132 44 13.3828 44H8.38281C7.27824 44 6.38281 43.1046 6.38281 42V37C6.38281 36.4696 6.59353 35.9609 6.9686 35.5858L21.9686 20.5858ZM10.3828 37.8284V40H12.5544L25.5544 27L23.3828 24.8284L10.3828 37.8284Z" fill="black"/>
<path id="Vector_3" fill-rule="evenodd" clip-rule="evenodd" d="M16.9686 26.5858C17.7496 25.8047 19.016 25.8047 19.797 26.5858L23.797 30.5858C24.5781 31.3668 24.5781 32.6332 23.797 33.4142C23.016 34.1953 21.7496 34.1953 20.9686 33.4142L16.9686 29.4142C16.1876 28.6332 16.1876 27.3668 16.9686 26.5858Z" fill="black"/>
<path id="Vector_4" fill-rule="evenodd" clip-rule="evenodd" d="M28.3828 4C29.4874 4 30.3828 4.89543 30.3828 6L30.3828 16L40.3828 16C41.4874 16 42.3828 16.8954 42.3828 18C42.3828 19.1046 41.4874 20 40.3828 20L30.3828 20C28.1737 20 26.3828 18.2091 26.3828 16L26.3828 6C26.3828 4.89543 27.2782 4 28.3828 4Z" fill="black"/>
</g>
</svg>
