<svg width="25" height="24" viewBox="0 0 25 24" fill="none" xmlns="http://www.w3.org/2000/svg">
<g id="Info_icon">
<path id="Vector" d="M11.0234 17H13.0234V11H11.0234V17ZM12.0234 9C12.3068 9 12.5444 8.904 12.7364 8.712C12.9278 8.52067 13.0234 8.28333 13.0234 8C13.0234 7.71667 12.9278 7.479 12.7364 7.287C12.5444 7.09567 12.3068 7 12.0234 7C11.7401 7 11.5028 7.09567 11.3114 7.287C11.1194 7.479 11.0234 7.71667 11.0234 8C11.0234 8.28333 11.1194 8.52067 11.3114 8.712C11.5028 8.904 11.7401 9 12.0234 9ZM12.0234 22C10.6401 22 9.3401 21.7373 8.12344 21.212C6.90677 20.6873 5.84844 19.975 4.94844 19.075C4.04844 18.175 3.3361 17.1167 2.81144 15.9C2.2861 14.6833 2.02344 13.3833 2.02344 12C2.02344 10.6167 2.2861 9.31667 2.81144 8.1C3.3361 6.88333 4.04844 5.825 4.94844 4.925C5.84844 4.025 6.90677 3.31233 8.12344 2.787C9.3401 2.26233 10.6401 2 12.0234 2C13.4068 2 14.7068 2.26233 15.9234 2.787C17.1401 3.31233 18.1984 4.025 19.0984 4.925C19.9984 5.825 20.7108 6.88333 21.2354 8.1C21.7608 9.31667 22.0234 10.6167 22.0234 12C22.0234 13.3833 21.7608 14.6833 21.2354 15.9C20.7108 17.1167 19.9984 18.175 19.0984 19.075C18.1984 19.975 17.1401 20.6873 15.9234 21.212C14.7068 21.7373 13.4068 22 12.0234 22ZM12.0234 20C14.2568 20 16.1484 19.225 17.6984 17.675C19.2484 16.125 20.0234 14.2333 20.0234 12C20.0234 9.76667 19.2484 7.875 17.6984 6.325C16.1484 4.775 14.2568 4 12.0234 4C9.7901 4 7.89844 4.775 6.34844 6.325C4.79844 7.875 4.02344 9.76667 4.02344 12C4.02344 14.2333 4.79844 16.125 6.34844 17.675C7.89844 19.225 9.7901 20 12.0234 20Z" fill="black"/>
</g>
</svg>
