<svg width="24" height="24" viewBox="0 0 24 24" fill="none" xmlns="http://www.w3.org/2000/svg">
<g id="Instagram_icon">
<path id="Vector" d="M7.99999 3C5.23899 3 3 5.23899 3 8V16C3 18.7609 5.23899 21 7.99999 21H16C18.761 21 21 18.7609 21 16V8C21 5.23899 18.761 3 16 3H7.99999ZM18 4.99999C18.552 4.99999 18.9999 5.448 18.9999 6C18.9999 6.55199 18.552 7 18 7C17.4479 7 17 6.55199 17 6C17 5.448 17.4479 4.99999 18 4.99999ZM12 7C14.761 7 17 9.23899 17 12C17 14.761 14.761 17 12 17C9.239 17 6.99999 14.761 6.99999 12C6.99999 9.23899 9.239 7 12 7ZM12 8.99999C11.2043 8.99999 10.4413 9.31607 9.87866 9.87867C9.31606 10.4413 8.99999 11.2043 8.99999 12C8.99999 12.7956 9.31606 13.5587 9.87866 14.1213C10.4413 14.6839 11.2043 15 12 15C12.7956 15 13.5587 14.6839 14.1213 14.1213C14.6839 13.5587 15 12.7956 15 12C15 11.2043 14.6839 10.4413 14.1213 9.87867C13.5587 9.31607 12.7956 8.99999 12 8.99999Z" fill="black"/>
</g>
</svg>
