<svg width="19" height="18" viewBox="0 0 19 18" fill="none" xmlns="http://www.w3.org/2000/svg">
<g id="Quote_icon">
<path id="&#226;&#128;&#156;" d="M18.0246 0.151229L17.6146 3.14423C16.5486 3.06223 15.7696 3.2809 15.2776 3.80023C14.7856 4.31956 14.4849 5.01656 14.3756 5.89123C14.2663 6.7659 14.2389 7.7089 14.2936 8.72023H18.0246V17.3712H11.0136V7.08023C11.0136 4.56556 11.6423 2.67956 12.8996 1.42223C14.1843 0.164897 15.8926 -0.25877 18.0246 0.151229ZM7.61061 0.151229L7.20061 3.14423C6.13461 3.06223 5.35561 3.2809 4.86361 3.80023C4.37161 4.31956 4.07094 5.01656 3.96161 5.89123C3.85228 6.7659 3.82494 7.7089 3.87961 8.72023H7.61061V17.3712H0.599609V7.08023C0.599609 4.56556 1.22828 2.67956 2.48561 1.42223C3.77028 0.164897 5.47861 -0.25877 7.61061 0.151229Z" fill="black"/>
</g>
</svg>
