<svg width="56" height="56" viewBox="0 0 56 56" fill="none" xmlns="http://www.w3.org/2000/svg">
<rect width="56" height="56" rx="28" fill="#0057C2"/>
<path d="M36.7125 19.4637L36.3025 22.4567C35.2365 22.3747 34.4575 22.5934 33.9655 23.1127C33.4735 23.6321 33.1728 24.3291 33.0635 25.2037C32.9542 26.0784 32.9268 27.0214 32.9815 28.0327H36.7125V36.6837H29.7015V26.3927C29.7015 23.8781 30.3302 21.9921 31.5875 20.7347C32.8722 19.4774 34.5805 19.0537 36.7125 19.4637ZM26.2985 19.4637L25.8885 22.4567C24.8225 22.3747 24.0435 22.5934 23.5515 23.1127C23.0595 23.6321 22.7588 24.3291 22.6495 25.2037C22.5402 26.0784 22.5128 27.0214 22.5675 28.0327H26.2985V36.6837H19.2875V26.3927C19.2875 23.8781 19.9162 21.9921 21.1735 20.7347C22.4582 19.4774 24.1665 19.0537 26.2985 19.4637Z" fill="white"/>
</svg>
