<svg width="18" height="18" viewBox="0 0 18 18" fill="none" xmlns="http://www.w3.org/2000/svg">
<g id="Quote_icon">
<path id="&#226;&#128;&#156;" d="M17.7125 0.463729L17.3025 3.45673C16.2365 3.37473 15.4575 3.5934 14.9655 4.11273C14.4735 4.63206 14.1728 5.32906 14.0635 6.20373C13.9542 7.0784 13.9268 8.0214 13.9815 9.03273H17.7125V17.6837H10.7015V7.39273C10.7015 4.87806 11.3302 2.99206 12.5875 1.73473C13.8722 0.477397 15.5805 0.0537297 17.7125 0.463729ZM7.29851 0.463729L6.88851 3.45673C5.82251 3.37473 5.04351 3.5934 4.55151 4.11273C4.05951 4.63206 3.75884 5.32906 3.64951 6.20373C3.54017 7.0784 3.51284 8.0214 3.56751 9.03273H7.29851V17.6837H0.287506V7.39273C0.287506 4.87806 0.916173 2.99206 2.17351 1.73473C3.45817 0.477397 5.16651 0.0537297 7.29851 0.463729Z" fill="white"/>
</g>
</svg>
