<svg width="49" height="48" viewBox="0 0 49 48" fill="none" xmlns="http://www.w3.org/2000/svg">
<g id="Select-multiple_icon_48px">
<path id="Vector" fill-rule="evenodd" clip-rule="evenodd" d="M6.38281 16C7.48738 16 8.38281 16.8954 8.38281 18V40H30.3828C31.4874 40 32.3828 40.8954 32.3828 42C32.3828 43.1046 31.4874 44 30.3828 44H8.38281C6.17367 44 4.38281 42.2091 4.38281 40V18C4.38281 16.8954 5.27824 16 6.38281 16Z" fill="black"/>
<path id="Vector_2" fill-rule="evenodd" clip-rule="evenodd" d="M40.3828 8L16.3828 8L16.3828 32L40.3828 32L40.3828 8ZM16.3828 4L40.3828 4C42.592 4 44.3828 5.79086 44.3828 8V32C44.3828 34.2091 42.592 36 40.3828 36L16.3828 36C14.1737 36 12.3828 34.2091 12.3828 32L12.3828 8C12.3828 5.79086 14.1737 4 16.3828 4Z" fill="black"/>
<path id="Vector_3" fill-rule="evenodd" clip-rule="evenodd" d="M35.797 14.5858C36.5781 15.3668 36.5781 16.6332 35.797 17.4142L27.797 25.4142C27.016 26.1953 25.7496 26.1953 24.9686 25.4142L20.9686 21.4142C20.1876 20.6332 20.1876 19.3668 20.9686 18.5858C21.7496 17.8047 23.016 17.8047 23.797 18.5858L26.3828 21.1716L32.9686 14.5858C33.7496 13.8047 35.016 13.8047 35.797 14.5858Z" fill="black"/>
</g>
</svg>
