<svg width="49" height="48" viewBox="0 0 49 48" fill="none" xmlns="http://www.w3.org/2000/svg">
<g id="Stop_icon_48px">
<path id="Vector" fill-rule="evenodd" clip-rule="evenodd" d="M24.3828 8C15.5463 8 8.38281 15.1634 8.38281 24C8.38281 32.8366 15.5463 40 24.3828 40C33.2194 40 40.3828 32.8366 40.3828 24C40.3828 15.1634 33.2194 8 24.3828 8ZM4.38281 24C4.38281 12.9543 13.3371 4 24.3828 4C35.4285 4 44.3828 12.9543 44.3828 24C44.3828 35.0457 35.4285 44 24.3828 44C13.3371 44 4.38281 35.0457 4.38281 24Z" fill="black"/>
<path id="Vector_2" fill-rule="evenodd" clip-rule="evenodd" d="M10.4686 10.0858C11.2496 9.30474 12.516 9.30474 13.297 10.0858L38.297 35.0858C39.0781 35.8668 39.0781 37.1332 38.297 37.9142C37.516 38.6953 36.2496 38.6953 35.4686 37.9142L10.4686 12.9142C9.68755 12.1332 9.68755 10.8668 10.4686 10.0858Z" fill="black"/>
</g>
</svg>
