<svg width="49" height="48" viewBox="0 0 49 48" fill="none" xmlns="http://www.w3.org/2000/svg">
<g id="Sun_icon_48px">
<path id="Vector" fill-rule="evenodd" clip-rule="evenodd" d="M24.3828 16C19.9645 16 16.3828 19.5817 16.3828 24C16.3828 28.4183 19.9645 32 24.3828 32C28.8011 32 32.3828 28.4183 32.3828 24C32.3828 19.5817 28.8011 16 24.3828 16ZM12.3828 24C12.3828 17.3726 17.7554 12 24.3828 12C31.0102 12 36.3828 17.3726 36.3828 24C36.3828 30.6274 31.0102 36 24.3828 36C17.7554 36 12.3828 30.6274 12.3828 24Z" fill="black"/>
<path id="Vector_2" fill-rule="evenodd" clip-rule="evenodd" d="M24.3828 2C25.4874 2 26.3828 2.89543 26.3828 4V8C26.3828 9.10457 25.4874 10 24.3828 10C23.2782 10 22.3828 9.10457 22.3828 8V4C22.3828 2.89543 23.2782 2 24.3828 2ZM24.3828 38C25.4874 38 26.3828 38.8954 26.3828 40V44C26.3828 45.1046 25.4874 46 24.3828 46C23.2782 46 22.3828 45.1046 22.3828 44V40C22.3828 38.8954 23.2782 38 24.3828 38Z" fill="black"/>
<path id="Vector_3" fill-rule="evenodd" clip-rule="evenodd" d="M8.9686 8.58579C9.74965 7.80474 11.016 7.80474 11.797 8.58579L14.6255 11.4142C15.4065 12.1953 15.4065 13.4616 14.6255 14.2426C13.8444 15.0237 12.5781 15.0237 11.797 14.2426L8.9686 11.4142C8.18755 10.6332 8.18755 9.36683 8.9686 8.58579ZM34.4244 34.0416C35.2055 33.2606 36.4718 33.2606 37.2529 34.0416L40.0813 36.8701C40.8623 37.6511 40.8623 38.9174 40.0813 39.6985C39.3002 40.4795 38.0339 40.4795 37.2529 39.6985L34.4244 36.8701C33.6434 36.089 33.6434 34.8227 34.4244 34.0416Z" fill="black"/>
<path id="Vector_4" fill-rule="evenodd" clip-rule="evenodd" d="M2.38281 24C2.38281 22.8954 3.27824 22 4.38281 22H8.38281C9.48738 22 10.3828 22.8954 10.3828 24C10.3828 25.1046 9.48738 26 8.38281 26H4.38281C3.27824 26 2.38281 25.1046 2.38281 24ZM38.3828 24C38.3828 22.8954 39.2782 22 40.3828 22H44.3828C45.4874 22 46.3828 22.8954 46.3828 24C46.3828 25.1046 45.4874 26 44.3828 26H40.3828C39.2782 26 38.3828 25.1046 38.3828 24Z" fill="black"/>
<path id="Vector_5" fill-rule="evenodd" clip-rule="evenodd" d="M40.0813 8.58579C40.8623 9.36684 40.8623 10.6332 40.0813 11.4142L37.2529 14.2426C36.4718 15.0237 35.2055 15.0237 34.4244 14.2426C33.6434 13.4616 33.6434 12.1953 34.4244 11.4142L37.2529 8.58579C38.0339 7.80474 39.3002 7.80474 40.0813 8.58579ZM14.6255 34.0416C15.4065 34.8227 15.4065 36.089 14.6255 36.8701L11.797 39.6985C11.016 40.4795 9.74965 40.4795 8.9686 39.6985C8.18755 38.9174 8.18755 37.6511 8.9686 36.8701L11.797 34.0416C12.5781 33.2606 13.8444 33.2606 14.6255 34.0416Z" fill="black"/>
</g>
</svg>
