<svg width="49" height="48" viewBox="0 0 49 48" fill="none" xmlns="http://www.w3.org/2000/svg">
<g id="Tag_icon_48px">
<path id="Vector" fill-rule="evenodd" clip-rule="evenodd" d="M23.6452 5.49789C24.8275 5.39041 25.9964 5.81362 26.8358 6.65304L41.7298 21.547C43.2919 23.1091 43.2919 25.6418 41.7298 27.2039L27.5876 41.346C26.0256 42.9081 23.4929 42.9081 21.9308 41.346L7.03683 26.452C6.19741 25.6126 5.7742 24.4437 5.88168 23.2615L7.06019 10.2978C7.23501 8.37483 8.75862 6.85122 10.6816 6.6764L23.6452 5.49789ZM24.0074 9.48146L11.0438 10.66L9.86525 23.6236L24.7592 38.5176L38.9014 24.3754L24.0074 9.48146Z" fill="black"/>
<path id="Vector_2" fill-rule="evenodd" clip-rule="evenodd" d="M15.5661 15.1833C17.1282 13.6212 19.6609 13.6212 21.223 15.1833C22.7851 16.7454 22.7851 19.278 21.223 20.8401C19.6609 22.4022 17.1282 22.4022 15.5661 20.8401C14.004 19.278 14.004 16.7454 15.5661 15.1833Z" fill="black"/>
</g>
</svg>
