<svg width="49" height="48" viewBox="0 0 49 48" fill="none" xmlns="http://www.w3.org/2000/svg">
<g id="task_alt_FILL0_wght400_GRAD0_opsz48 1">
<path id="Vector" d="M24.3828 44C21.5495 44 18.9161 43.4917 16.4828 42.475C14.0495 41.4583 11.9328 40.05 10.1328 38.25C8.33281 36.45 6.92448 34.3333 5.90781 31.9C4.89115 29.4667 4.38281 26.8333 4.38281 24C4.38281 21.2 4.89115 18.5833 5.90781 16.15C6.92448 13.7167 8.33281 11.6 10.1328 9.8C11.9328 8 14.0495 6.58333 16.4828 5.55C18.9161 4.51667 21.5495 4 24.3828 4C26.8828 4 29.2161 4.4 31.3828 5.2C33.5495 6 35.4995 7.1 37.2328 8.5L35.0828 10.65C33.6161 9.48333 31.9828 8.58333 30.1828 7.95C28.3828 7.31667 26.4495 7 24.3828 7C19.5495 7 15.5078 8.625 12.2578 11.875C9.00781 15.125 7.38281 19.1667 7.38281 24C7.38281 28.8333 9.00781 32.875 12.2578 36.125C15.5078 39.375 19.5495 41 24.3828 41C29.2161 41 33.2578 39.375 36.5078 36.125C39.7578 32.875 41.3828 28.8333 41.3828 24C41.3828 23 41.3078 22.025 41.1578 21.075C41.0078 20.125 40.7828 19.2 40.4828 18.3L42.7828 16C43.3161 17.2333 43.7161 18.5167 43.9828 19.85C44.2495 21.1833 44.3828 22.5667 44.3828 24C44.3828 26.8333 43.8661 29.4667 42.8328 31.9C41.7995 34.3333 40.3828 36.45 38.5828 38.25C36.7828 40.05 34.6661 41.4583 32.2328 42.475C29.7995 43.4917 27.1828 44 24.3828 44ZM21.4328 33.1L13.1828 24.8L15.4328 22.55L21.4328 28.55L42.1328 7.85L44.4328 10.1L21.4328 33.1Z" fill="black"/>
</g>
</svg>
