<svg width="24" height="24" viewBox="0 0 24 24" fill="none" xmlns="http://www.w3.org/2000/svg">
<g id="task_alt_FILL0_wght600_GRAD0_opsz24 1">
<path id="Vector" d="M12.0004 22.4734C10.5337 22.4734 9.16706 22.1984 7.90039 21.6484C6.63372 21.0984 5.52972 20.3528 4.58839 19.4114C3.64639 18.4694 2.90039 17.3651 2.35039 16.0984C1.80039 14.8318 1.52539 13.4651 1.52539 11.9984C1.52539 10.5318 1.80039 9.1651 2.35039 7.89844C2.90039 6.63177 3.64639 5.52744 4.58839 4.58544C5.52972 3.6441 6.63372 2.89844 7.90039 2.34844C9.16706 1.79844 10.5337 1.52344 12.0004 1.52344C13.0837 1.52344 14.1087 1.67344 15.0754 1.97344C16.0421 2.27344 16.9421 2.6901 17.7754 3.22344L15.8254 5.19844C15.2587 4.88177 14.6587 4.63177 14.0254 4.44844C13.3921 4.2651 12.7171 4.17344 12.0004 4.17344C9.83372 4.17344 7.98806 4.93177 6.46339 6.44844C4.93806 7.9651 4.17539 9.8151 4.17539 11.9984C4.17539 14.1818 4.93806 16.0318 6.46339 17.5484C7.98806 19.0651 9.83372 19.8234 12.0004 19.8234C14.1671 19.8234 16.0131 19.0651 17.5384 17.5484C19.0631 16.0318 19.8254 14.1818 19.8254 11.9984C19.8254 11.7651 19.8131 11.5274 19.7884 11.2854C19.7631 11.0441 19.7254 10.8068 19.6754 10.5734L21.8754 8.39844C22.0754 8.9651 22.2254 9.54844 22.3254 10.1484C22.4254 10.7484 22.4754 11.3651 22.4754 11.9984C22.4754 13.4651 22.2004 14.8318 21.6504 16.0984C21.1004 17.3651 20.3547 18.4694 19.4134 19.4114C18.4714 20.3528 17.3671 21.0984 16.1004 21.6484C14.8337 22.1984 13.4671 22.4734 12.0004 22.4734ZM10.5504 16.8734L6.10039 12.4234L7.87539 10.6234L10.5504 13.2984L20.6754 3.14844L22.4754 4.94844L10.5504 16.8734Z" fill="#C5CCD8"/>
</g>
</svg>
