<svg width="25" height="24" viewBox="0 0 25 24" fill="none" xmlns="http://www.w3.org/2000/svg">
<g id="task_alt_black_24dp 1" clip-path="url(#clip0_53269_27148)">
<path id="Vector" d="M22.0234 5.18L10.6134 16.6L6.37344 12.36L7.78344 10.95L10.6134 13.78L20.6134 3.78L22.0234 5.18ZM19.8134 10.22C19.9434 10.79 20.0234 11.39 20.0234 12C20.0234 16.42 16.4434 20 12.0234 20C7.60344 20 4.02344 16.42 4.02344 12C4.02344 7.58 7.60344 4 12.0234 4C13.6034 4 15.0634 4.46 16.3034 5.25L17.7434 3.81C16.1234 2.67 14.1534 2 12.0234 2C6.50344 2 2.02344 6.48 2.02344 12C2.02344 17.52 6.50344 22 12.0234 22C17.5434 22 22.0234 17.52 22.0234 12C22.0234 10.81 21.8034 9.67 21.4234 8.61L19.8134 10.22Z" fill="black"/>
</g>
<defs>
<clipPath id="clip0_53269_27148">
<rect width="24" height="24" fill="white" transform="translate(0.0234375)"/>
</clipPath>
</defs>
</svg>
