<svg width="49" height="48" viewBox="0 0 49 48" fill="none" xmlns="http://www.w3.org/2000/svg">
<g id="Top-bar_icon_48px">
<path id="Vector" fill-rule="evenodd" clip-rule="evenodd" d="M40.3828 20L8.38281 20C7.27824 20 6.38281 19.1046 6.38281 18C6.38281 16.8954 7.27824 16 8.38281 16L40.3828 16C41.4874 16 42.3828 16.8954 42.3828 18C42.3828 19.1046 41.4874 20 40.3828 20Z" fill="black"/>
<path id="Vector_2" fill-rule="evenodd" clip-rule="evenodd" d="M38.3828 10L10.3828 10L10.3828 38L38.3828 38L38.3828 10ZM10.3828 6L38.3828 6C40.5919 6 42.3828 7.79086 42.3828 10L42.3828 38C42.3828 40.2091 40.5919 42 38.3828 42L10.3828 42C8.17367 42 6.38282 40.2091 6.38282 38L6.38281 10C6.38281 7.79086 8.17367 6 10.3828 6Z" fill="black"/>
</g>
</svg>
