<svg width="20" height="20" viewBox="0 0 20 20" fill="none" xmlns="http://www.w3.org/2000/svg">
<g id="Window-Check_icon">
<g id="Vector">
<path fill-rule="evenodd" clip-rule="evenodd" d="M17.5 5.41406L2.49998 5.41407C2.26986 5.41407 2.08331 5.22752 2.08331 4.9974C2.08331 4.76728 2.26986 4.58073 2.49998 4.58073L17.5 4.58073C17.7301 4.58073 17.9166 4.76728 17.9166 4.9974C17.9166 5.22752 17.7301 5.41406 17.5 5.41406Z" fill="white"/>
<path fill-rule="evenodd" clip-rule="evenodd" d="M16.6666 3.7474L3.33331 3.7474C3.10319 3.7474 2.91665 3.93395 2.91665 4.16406L2.91665 15.8307C2.91665 16.0609 3.1032 16.2474 3.33331 16.2474L16.6666 16.2474C16.8968 16.2474 17.0833 16.0609 17.0833 15.8307V4.16406C17.0833 3.93394 16.8968 3.7474 16.6666 3.7474ZM3.33331 2.91406L16.6666 2.91406C17.357 2.91406 17.9166 3.47371 17.9166 4.16406V15.8307C17.9166 16.5211 17.357 17.0807 16.6666 17.0807L3.33331 17.0807C2.64296 17.0807 2.08331 16.5211 2.08331 15.8307L2.08331 4.16406C2.08331 3.47371 2.64296 2.91406 3.33331 2.91406Z" fill="white"/>
<path fill-rule="evenodd" clip-rule="evenodd" d="M12.7946 8.86944C12.9573 9.03216 12.9573 9.29597 12.7946 9.45869L9.46127 12.792C9.29856 12.9547 9.03474 12.9547 8.87202 12.792L7.20535 11.1254C7.04263 10.9626 7.04263 10.6988 7.20535 10.5361C7.36807 10.3734 7.63189 10.3734 7.79461 10.5361L9.16665 11.9081L12.2054 8.86944C12.3681 8.70672 12.6319 8.70672 12.7946 8.86944Z" fill="white"/>
</g>
</g>
</svg>
