<svg width="24" height="24" viewBox="0 0 24 24" fill="none" xmlns="http://www.w3.org/2000/svg">
<g id="Window-Check_icon">
<g id="Vector">
<path fill-rule="evenodd" clip-rule="evenodd" d="M21 6.5L3 6.5C2.72386 6.5 2.5 6.27615 2.5 6C2.5 5.72386 2.72386 5.5 3 5.5L21 5.5C21.2761 5.5 21.5 5.72386 21.5 6C21.5 6.27614 21.2761 6.5 21 6.5Z" fill="black"/>
<path fill-rule="evenodd" clip-rule="evenodd" d="M20 4.5L4 4.5C3.72386 4.5 3.5 4.72386 3.5 5L3.5 19C3.5 19.2761 3.72386 19.5 4 19.5L20 19.5C20.2761 19.5 20.5 19.2761 20.5 19V5C20.5 4.72386 20.2761 4.5 20 4.5ZM4 3.5L20 3.5C20.8284 3.5 21.5 4.17157 21.5 5V19C21.5 19.8284 20.8284 20.5 20 20.5L4 20.5C3.17158 20.5 2.5 19.8284 2.5 19L2.5 5C2.5 4.17157 3.17157 3.5 4 3.5Z" fill="black"/>
<path fill-rule="evenodd" clip-rule="evenodd" d="M15.3536 10.6464C15.5488 10.8417 15.5488 11.1583 15.3536 11.3536L11.3536 15.3536C11.1583 15.5488 10.8417 15.5488 10.6464 15.3536L8.64645 13.3536C8.45118 13.1583 8.45118 12.8417 8.64645 12.6464C8.84171 12.4512 9.15829 12.4512 9.35355 12.6464L11 14.2929L14.6464 10.6464C14.8417 10.4512 15.1583 10.4512 15.3536 10.6464Z" fill="black"/>
</g>
</g>
</svg>
